<?xml version="1.0" encoding="utf-8"?>
<svg xmlns="http://www.w3.org/2000/svg" width="1500" height="900" viewBox="0 0 1500 900">
<rect x="0" y="0" width="1500" height="900" fill="#0b0f14"/>
<text x="50" y="32" fill="#ffffff" font-size="20" font-family="ui-sans-serif,system-ui">UMAP 3D - Tensor Logic + Homology proof map</text>
<text x="50" y="48" fill="#b8c7d9" font-size="12" font-family="ui-sans-serif">Rotating view - Colors: module family</text>
<style>@keyframes rotate { from { transform: rotate(0deg); } to { transform: rotate(360deg); } }</style>
<g style="transform-origin: 750px 450px; animation: rotate 20s linear infinite;">
<circle cx="411.43" cy="652.55" r="3" fill="hsl(49, 70%, 58%)" opacity="0.49"/>
<circle cx="559.04" cy="671.86" r="3" fill="hsl(49, 70%, 58%)" opacity="0.54"/>
<circle cx="761.24" cy="606.29" r="3" fill="hsl(49, 70%, 58%)" opacity="0.59"/>
<circle cx="830.90" cy="546.25" r="3" fill="hsl(49, 70%, 58%)" opacity="0.61"/>
<circle cx="633.30" cy="632.37" r="3" fill="hsl(49, 70%, 58%)" opacity="0.56"/>
<circle cx="323.24" cy="723.29" r="3" fill="hsl(49, 70%, 58%)" opacity="0.47"/>
<circle cx="824.40" cy="509.78" r="3" fill="hsl(49, 70%, 58%)" opacity="0.61"/>
<circle cx="846.97" cy="550.24" r="3" fill="hsl(49, 70%, 58%)" opacity="0.61"/>
<circle cx="382.84" cy="665.14" r="3" fill="hsl(49, 70%, 58%)" opacity="0.49"/>
<circle cx="828.51" cy="531.29" r="3" fill="hsl(49, 70%, 58%)" opacity="0.61"/>
<circle cx="323.78" cy="717.64" r="3" fill="hsl(49, 70%, 58%)" opacity="0.47"/>
<circle cx="333.04" cy="711.45" r="3" fill="hsl(49, 70%, 58%)" opacity="0.47"/>
<circle cx="340.64" cy="689.21" r="3" fill="hsl(49, 70%, 58%)" opacity="0.48"/>
<circle cx="463.04" cy="695.61" r="3" fill="hsl(33, 70%, 58%)" opacity="0.51"/>
<circle cx="646.67" cy="565.96" r="3" fill="hsl(33, 70%, 58%)" opacity="0.57"/>
<circle cx="327.22" cy="773.08" r="3" fill="hsl(33, 70%, 58%)" opacity="0.48"/>
<circle cx="338.36" cy="754.43" r="3" fill="hsl(33, 70%, 58%)" opacity="0.49"/>
<circle cx="658.76" cy="588.26" r="3" fill="hsl(33, 70%, 58%)" opacity="0.57"/>
<circle cx="438.37" cy="697.42" r="3" fill="hsl(33, 70%, 58%)" opacity="0.49"/>
<circle cx="671.74" cy="570.32" r="3" fill="hsl(33, 70%, 58%)" opacity="0.57"/>
<circle cx="699.59" cy="538.91" r="3" fill="hsl(33, 70%, 58%)" opacity="0.59"/>
<circle cx="782.01" cy="568.08" r="3" fill="hsl(0, 0%, 70%)" opacity="0.60"/>
<circle cx="594.42" cy="640.29" r="3" fill="hsl(0, 0%, 70%)" opacity="0.55"/>
<circle cx="841.58" cy="549.53" r="3" fill="hsl(0, 0%, 70%)" opacity="0.61"/>
<circle cx="585.45" cy="660.99" r="3" fill="hsl(0, 0%, 70%)" opacity="0.54"/>
<circle cx="575.11" cy="647.47" r="3" fill="hsl(0, 0%, 70%)" opacity="0.54"/>
<circle cx="747.38" cy="594.91" r="3" fill="hsl(0, 0%, 70%)" opacity="0.59"/>
<circle cx="749.91" cy="587.12" r="3" fill="hsl(0, 0%, 70%)" opacity="0.58"/>
<circle cx="800.49" cy="569.08" r="3" fill="hsl(0, 0%, 70%)" opacity="0.60"/>
<circle cx="436.17" cy="664.32" r="3" fill="hsl(0, 0%, 70%)" opacity="0.50"/>
<circle cx="322.32" cy="743.03" r="3" fill="hsl(0, 0%, 70%)" opacity="0.47"/>
<circle cx="476.55" cy="651.52" r="3" fill="hsl(0, 0%, 70%)" opacity="0.51"/>
<circle cx="710.19" cy="613.23" r="3" fill="hsl(0, 0%, 70%)" opacity="0.58"/>
<circle cx="333.60" cy="736.20" r="3" fill="hsl(0, 0%, 70%)" opacity="0.47"/>
<circle cx="515.36" cy="668.43" r="3" fill="hsl(0, 0%, 70%)" opacity="0.52"/>
<circle cx="726.21" cy="592.11" r="3" fill="hsl(0, 0%, 70%)" opacity="0.57"/>
<circle cx="702.16" cy="598.32" r="3" fill="hsl(0, 0%, 70%)" opacity="0.58"/>
<circle cx="329.64" cy="704.93" r="3" fill="hsl(0, 0%, 70%)" opacity="0.48"/>
<circle cx="340.01" cy="789.75" r="3" fill="hsl(0, 0%, 70%)" opacity="0.47"/>
<circle cx="434.60" cy="683.49" r="3" fill="hsl(0, 0%, 70%)" opacity="0.48"/>
<circle cx="604.50" cy="578.52" r="3" fill="hsl(0, 0%, 70%)" opacity="0.56"/>
<circle cx="834.33" cy="526.73" r="3" fill="hsl(0, 0%, 70%)" opacity="0.62"/>
<circle cx="851.21" cy="479.98" r="3" fill="hsl(0, 0%, 70%)" opacity="0.62"/>
<circle cx="854.37" cy="517.11" r="3" fill="hsl(0, 0%, 70%)" opacity="0.62"/>
<circle cx="648.29" cy="531.55" r="3" fill="hsl(0, 0%, 70%)" opacity="0.57"/>
<circle cx="693.02" cy="549.62" r="3" fill="hsl(0, 0%, 70%)" opacity="0.58"/>
<circle cx="346.09" cy="747.71" r="3" fill="hsl(0, 0%, 70%)" opacity="0.48"/>
<circle cx="394.29" cy="726.37" r="3" fill="hsl(0, 0%, 70%)" opacity="0.49"/>
<circle cx="437.74" cy="706.67" r="3" fill="hsl(0, 0%, 70%)" opacity="0.50"/>
<circle cx="432.00" cy="738.52" r="3" fill="hsl(0, 0%, 70%)" opacity="0.50"/>
<circle cx="679.13" cy="521.69" r="3" fill="hsl(0, 0%, 70%)" opacity="0.57"/>
<circle cx="993.52" cy="216.16" r="3" fill="hsl(128, 70%, 58%)" opacity="0.78"/>
<circle cx="1022.38" cy="153.40" r="3" fill="hsl(128, 70%, 58%)" opacity="0.83"/>
<circle cx="1010.85" cy="187.91" r="3" fill="hsl(128, 70%, 58%)" opacity="0.80"/>
<circle cx="1025.42" cy="181.53" r="3" fill="hsl(128, 70%, 58%)" opacity="0.81"/>
<circle cx="916.72" cy="425.93" r="3" fill="hsl(128, 70%, 58%)" opacity="0.66"/>
<circle cx="911.84" cy="405.74" r="3" fill="hsl(128, 70%, 58%)" opacity="0.65"/>
<circle cx="980.61" cy="245.61" r="3" fill="hsl(128, 70%, 58%)" opacity="0.76"/>
<circle cx="1013.40" cy="151.00" r="3" fill="hsl(128, 70%, 58%)" opacity="0.81"/>
<circle cx="1012.31" cy="184.47" r="3" fill="hsl(128, 70%, 58%)" opacity="0.83"/>
<circle cx="1038.81" cy="113.32" r="3" fill="hsl(128, 70%, 58%)" opacity="0.89"/>
<circle cx="1020.17" cy="173.87" r="3" fill="hsl(128, 70%, 58%)" opacity="0.82"/>
<circle cx="1049.08" cy="76.69" r="3" fill="hsl(128, 70%, 58%)" opacity="0.89"/>
<circle cx="995.81" cy="170.18" r="3" fill="hsl(128, 70%, 58%)" opacity="0.80"/>
<circle cx="925.76" cy="393.03" r="3" fill="hsl(128, 70%, 58%)" opacity="0.67"/>
<circle cx="1060.02" cy="100.95" r="3" fill="hsl(128, 70%, 58%)" opacity="0.87"/>
<circle cx="1035.37" cy="123.96" r="3" fill="hsl(128, 70%, 58%)" opacity="0.86"/>
<circle cx="943.47" cy="400.07" r="3" fill="hsl(128, 70%, 58%)" opacity="0.66"/>
<circle cx="1041.69" cy="86.66" r="3" fill="hsl(128, 70%, 58%)" opacity="0.90"/>
<circle cx="1051.55" cy="19.51" r="3" fill="hsl(128, 70%, 58%)" opacity="0.91"/>
<circle cx="1034.20" cy="79.34" r="3" fill="hsl(128, 70%, 58%)" opacity="0.88"/>
<circle cx="1035.18" cy="141.46" r="3" fill="hsl(128, 70%, 58%)" opacity="0.84"/>
<circle cx="1056.22" cy="-5.41" r="3" fill="hsl(128, 70%, 58%)" opacity="0.93"/>
<circle cx="1064.07" cy="1.05" r="3" fill="hsl(128, 70%, 58%)" opacity="0.92"/>
<circle cx="941.14" cy="421.49" r="3" fill="hsl(128, 70%, 58%)" opacity="0.66"/>
<circle cx="1033.29" cy="42.19" r="3" fill="hsl(128, 70%, 58%)" opacity="0.91"/>
<circle cx="936.94" cy="414.99" r="3" fill="hsl(128, 70%, 58%)" opacity="0.66"/>
<circle cx="1061.84" cy="88.93" r="3" fill="hsl(128, 70%, 58%)" opacity="0.88"/>
<circle cx="1027.66" cy="2.54" r="3" fill="hsl(128, 70%, 58%)" opacity="0.93"/>
<circle cx="949.73" cy="383.29" r="3" fill="hsl(128, 70%, 58%)" opacity="0.68"/>
<circle cx="1000.52" cy="165.36" r="3" fill="hsl(128, 70%, 58%)" opacity="0.81"/>
<circle cx="1043.33" cy="15.40" r="3" fill="hsl(128, 70%, 58%)" opacity="0.91"/>
<circle cx="1054.82" cy="-43.11" r="3" fill="hsl(260, 70%, 58%)" opacity="0.92"/>
<circle cx="1021.62" cy="159.26" r="3" fill="hsl(260, 70%, 58%)" opacity="0.83"/>
<circle cx="1004.98" cy="194.18" r="3" fill="hsl(260, 70%, 58%)" opacity="0.80"/>
<circle cx="998.41" cy="215.07" r="3" fill="hsl(260, 70%, 58%)" opacity="0.81"/>
<circle cx="927.70" cy="381.88" r="3" fill="hsl(260, 70%, 58%)" opacity="0.67"/>
<circle cx="1031.13" cy="166.12" r="3" fill="hsl(260, 70%, 58%)" opacity="0.84"/>
<circle cx="940.01" cy="367.27" r="3" fill="hsl(260, 70%, 58%)" opacity="0.68"/>
<circle cx="1038.64" cy="-13.89" r="3" fill="hsl(260, 70%, 58%)" opacity="0.92"/>
<circle cx="1028.82" cy="136.90" r="3" fill="hsl(260, 70%, 58%)" opacity="0.82"/>
<circle cx="1000.58" cy="177.01" r="3" fill="hsl(260, 70%, 58%)" opacity="0.81"/>
<circle cx="1065.63" cy="41.04" r="3" fill="hsl(260, 70%, 58%)" opacity="0.90"/>
<circle cx="1051.14" cy="96.70" r="3" fill="hsl(260, 70%, 58%)" opacity="0.88"/>
<circle cx="1043.49" cy="-24.74" r="3" fill="hsl(260, 70%, 58%)" opacity="0.92"/>
<circle cx="948.64" cy="411.09" r="3" fill="hsl(260, 70%, 58%)" opacity="0.67"/>
<circle cx="946.58" cy="394.47" r="3" fill="hsl(260, 70%, 58%)" opacity="0.68"/>
<circle cx="954.55" cy="352.77" r="3" fill="hsl(345, 70%, 58%)" opacity="0.70"/>
<circle cx="1050.60" cy="59.51" r="3" fill="hsl(345, 70%, 58%)" opacity="0.89"/>
<circle cx="945.06" cy="340.75" r="3" fill="hsl(345, 70%, 58%)" opacity="0.68"/>
<circle cx="972.52" cy="276.56" r="3" fill="hsl(345, 70%, 58%)" opacity="0.74"/>
<circle cx="945.42" cy="415.38" r="3" fill="hsl(345, 70%, 58%)" opacity="0.67"/>
<circle cx="1047.19" cy="26.89" r="3" fill="hsl(345, 70%, 58%)" opacity="0.91"/>
<circle cx="1047.92" cy="-10.30" r="3" fill="hsl(345, 70%, 58%)" opacity="0.92"/>
<circle cx="1056.12" cy="79.67" r="3" fill="hsl(345, 70%, 58%)" opacity="0.89"/>
<circle cx="1038.08" cy="8.08" r="3" fill="hsl(345, 70%, 58%)" opacity="0.92"/>
<circle cx="841.64" cy="510.12" r="3" fill="hsl(285, 70%, 58%)" opacity="0.62"/>
<circle cx="324.31" cy="704.64" r="3" fill="hsl(285, 70%, 58%)" opacity="0.48"/>
<circle cx="861.90" cy="535.69" r="3" fill="hsl(285, 70%, 58%)" opacity="0.61"/>
<circle cx="600.08" cy="626.50" r="3" fill="hsl(285, 70%, 58%)" opacity="0.55"/>
<circle cx="555.24" cy="672.75" r="3" fill="hsl(285, 70%, 58%)" opacity="0.53"/>
<circle cx="369.07" cy="806.71" r="3" fill="hsl(220, 70%, 58%)" opacity="0.48"/>
<circle cx="688.21" cy="490.83" r="3" fill="hsl(220, 70%, 58%)" opacity="0.58"/>
<circle cx="666.77" cy="495.22" r="3" fill="hsl(220, 70%, 58%)" opacity="0.58"/>
<circle cx="412.28" cy="773.10" r="3" fill="hsl(220, 70%, 58%)" opacity="0.48"/>
<circle cx="666.40" cy="492.58" r="3" fill="hsl(220, 70%, 58%)" opacity="0.58"/>
<circle cx="410.77" cy="764.58" r="3" fill="hsl(220, 70%, 58%)" opacity="0.50"/>
<circle cx="426.44" cy="767.24" r="3" fill="hsl(220, 70%, 58%)" opacity="0.49"/>
<circle cx="410.17" cy="761.50" r="3" fill="hsl(220, 70%, 58%)" opacity="0.49"/>
<circle cx="678.16" cy="475.41" r="3" fill="hsl(220, 70%, 58%)" opacity="0.59"/>
<circle cx="372.26" cy="811.36" r="3" fill="hsl(220, 70%, 58%)" opacity="0.48"/>
<circle cx="642.88" cy="493.32" r="3" fill="hsl(220, 70%, 58%)" opacity="0.57"/>
<circle cx="679.66" cy="473.88" r="3" fill="hsl(220, 70%, 58%)" opacity="0.58"/>
<circle cx="431.47" cy="758.86" r="3" fill="hsl(220, 70%, 58%)" opacity="0.49"/>
<circle cx="655.65" cy="474.33" r="3" fill="hsl(220, 70%, 58%)" opacity="0.57"/>
<circle cx="447.78" cy="756.10" r="3" fill="hsl(220, 70%, 58%)" opacity="0.49"/>
<circle cx="452.09" cy="733.28" r="3" fill="hsl(220, 70%, 58%)" opacity="0.49"/>
<circle cx="789.04" cy="536.24" r="3" fill="hsl(180, 70%, 58%)" opacity="0.60"/>
<circle cx="364.56" cy="677.10" r="3" fill="hsl(180, 70%, 58%)" opacity="0.48"/>
<circle cx="764.83" cy="551.44" r="3" fill="hsl(180, 70%, 58%)" opacity="0.59"/>
<circle cx="870.39" cy="525.90" r="3" fill="hsl(345, 70%, 58%)" opacity="0.62"/>
<circle cx="653.75" cy="485.37" r="3" fill="hsl(345, 70%, 58%)" opacity="0.57"/>
<circle cx="867.31" cy="479.79" r="3" fill="hsl(345, 70%, 58%)" opacity="0.63"/>
<circle cx="652.78" cy="510.59" r="3" fill="hsl(345, 70%, 58%)" opacity="0.58"/>
<circle cx="382.72" cy="777.83" r="3" fill="hsl(345, 70%, 58%)" opacity="0.48"/>
<circle cx="620.83" cy="506.65" r="3" fill="hsl(345, 70%, 58%)" opacity="0.57"/>
<circle cx="386.41" cy="790.00" r="3" fill="hsl(345, 70%, 58%)" opacity="0.48"/>
<circle cx="543.01" cy="605.55" r="3" fill="hsl(345, 70%, 58%)" opacity="0.54"/>
<circle cx="863.49" cy="482.80" r="3" fill="hsl(345, 70%, 58%)" opacity="0.63"/>
<circle cx="698.73" cy="611.63" r="3" fill="hsl(180, 70%, 58%)" opacity="0.57"/>
<circle cx="569.25" cy="643.34" r="3" fill="hsl(180, 70%, 58%)" opacity="0.54"/>
<circle cx="593.59" cy="638.83" r="3" fill="hsl(180, 70%, 58%)" opacity="0.55"/>
<circle cx="573.32" cy="628.37" r="3" fill="hsl(180, 70%, 58%)" opacity="0.55"/>
<circle cx="571.12" cy="664.64" r="3" fill="hsl(180, 70%, 58%)" opacity="0.53"/>
<circle cx="319.88" cy="660.74" r="3" fill="hsl(180, 70%, 58%)" opacity="0.47"/>
<circle cx="632.68" cy="653.64" r="3" fill="hsl(180, 70%, 58%)" opacity="0.56"/>
<circle cx="890.48" cy="454.37" r="3" fill="hsl(160, 50%, 50%)" opacity="0.64"/>
<circle cx="882.60" cy="472.23" r="3" fill="hsl(160, 50%, 50%)" opacity="0.64"/>
<circle cx="899.01" cy="456.23" r="3" fill="hsl(160, 50%, 50%)" opacity="0.64"/>
<circle cx="711.55" cy="606.72" r="3" fill="hsl(160, 50%, 50%)" opacity="0.58"/>
<circle cx="572.43" cy="651.43" r="3" fill="hsl(160, 50%, 50%)" opacity="0.55"/>
<circle cx="737.51" cy="575.80" r="3" fill="hsl(160, 50%, 50%)" opacity="0.59"/>
<circle cx="1063.19" cy="-2.20" r="3" fill="hsl(160, 50%, 50%)" opacity="0.94"/>
<circle cx="1051.05" cy="124.66" r="3" fill="hsl(160, 50%, 50%)" opacity="0.88"/>
<circle cx="1005.59" cy="143.96" r="3" fill="hsl(160, 50%, 50%)" opacity="0.80"/>
<circle cx="453.30" cy="718.43" r="3" fill="hsl(160, 50%, 50%)" opacity="0.50"/>
<circle cx="348.77" cy="824.64" r="3" fill="hsl(160, 50%, 50%)" opacity="0.48"/>
<circle cx="640.09" cy="494.79" r="3" fill="hsl(160, 50%, 50%)" opacity="0.58"/>
<circle cx="360.67" cy="830.18" r="3" fill="hsl(160, 50%, 50%)" opacity="0.47"/>
<circle cx="626.24" cy="527.28" r="3" fill="hsl(160, 50%, 50%)" opacity="0.57"/>
<circle cx="872.54" cy="492.59" r="3" fill="hsl(160, 50%, 50%)" opacity="0.63"/>
<circle cx="645.51" cy="483.47" r="3" fill="hsl(160, 50%, 50%)" opacity="0.58"/>
<circle cx="463.99" cy="747.77" r="3" fill="hsl(160, 50%, 50%)" opacity="0.50"/>
<circle cx="1015.33" cy="170.40" r="3" fill="hsl(160, 50%, 50%)" opacity="0.84"/>
<circle cx="1052.83" cy="113.07" r="3" fill="hsl(160, 50%, 50%)" opacity="0.87"/>
<circle cx="1049.10" cy="146.14" r="3" fill="hsl(160, 50%, 50%)" opacity="0.86"/>
<circle cx="985.65" cy="166.78" r="3" fill="hsl(160, 50%, 50%)" opacity="0.80"/>
<circle cx="921.38" cy="370.70" r="3" fill="hsl(160, 50%, 50%)" opacity="0.67"/>
<circle cx="1054.93" cy="-19.68" r="3" fill="hsl(160, 50%, 50%)" opacity="0.93"/>
<circle cx="1071.49" cy="94.02" r="3" fill="hsl(160, 50%, 50%)" opacity="0.89"/>
</g>
</svg>